<svg width="85" height="18" viewBox="0 0 85 18" fill="none" xmlns="http://www.w3.org/2000/svg">
<path d="M27.136 4.75112C24.784 4.75112 22.867 6.54012 22.867 9.00412C22.867 11.4531 24.784 13.2571 27.136 13.2571C29.489 13.2571 31.406 11.4531 31.406 9.00412C31.405 6.54012 29.488 4.75112 27.136 4.75112ZM27.136 11.5831C25.847 11.5831 24.736 10.5201 24.736 9.00512C24.736 7.47412 25.848 6.42712 27.136 6.42712C28.425 6.42712 29.536 7.47412 29.536 9.00512C29.536 10.5191 28.425 11.5831 27.136 11.5831ZM17.822 4.75112C15.47 4.75112 13.553 6.54012 13.553 9.00412C13.553 11.4531 15.47 13.2571 17.822 13.2571C20.175 13.2571 22.092 11.4531 22.092 9.00412C22.092 6.54012 20.175 4.75112 17.822 4.75112ZM17.822 11.5831C16.533 11.5831 15.422 10.5201 15.422 9.00512C15.422 7.47412 16.534 6.42712 17.822 6.42712C19.111 6.42712 20.222 7.47412 20.222 9.00512C20.223 10.5191 19.111 11.5831 17.822 11.5831ZM6.74399 6.05712V7.86112H11.062C10.933 8.87612 10.595 9.61712 10.079 10.1321C9.45099 10.7601 8.46799 11.4531 6.74399 11.4531C4.08599 11.4531 2.00799 9.31012 2.00799 6.65212C2.00799 3.99412 4.08599 1.85112 6.74399 1.85112C8.17799 1.85112 9.22499 2.41512 9.99799 3.14012L11.271 1.86712C10.191 0.83612 8.75799 0.04712 6.74399 0.04712C3.10299 0.04712 0.041992 3.01112 0.041992 6.65212C0.041992 10.2931 3.10299 13.2571 6.74399 13.2571C8.70899 13.2571 10.192 12.6121 11.351 11.4041C12.543 10.2121 12.914 8.53612 12.914 7.18312C12.914 6.76512 12.882 6.37812 12.817 6.05612H6.74399V6.05712ZM52.052 7.45812C51.698 6.50812 50.618 4.75112 48.411 4.75112C46.22 4.75112 44.399 6.47512 44.399 9.00412C44.399 11.3881 46.204 13.2571 48.62 13.2571C50.569 13.2571 51.697 12.0651 52.165 11.3721L50.715 10.4051C50.232 11.1141 49.571 11.5811 48.62 11.5811C47.67 11.5811 46.993 11.1461 46.558 10.2921L52.245 7.94012L52.052 7.45812ZM46.252 8.87612C46.204 7.23212 47.525 6.39512 48.476 6.39512C49.217 6.39512 49.845 6.76612 50.055 7.29712L46.252 8.87612ZM41.629 13.0001H43.497V0.49912H41.629V13.0001ZM38.567 5.70212H38.503C38.084 5.20212 37.278 4.75112 36.264 4.75112C34.137 4.75112 32.188 6.62012 32.188 9.02112C32.188 11.4051 34.137 13.2581 36.264 13.2581C37.279 13.2581 38.084 12.8071 38.503 12.2921H38.567V12.9041C38.567 14.5311 37.697 15.4011 36.296 15.4011C35.152 15.4011 34.443 14.5801 34.153 13.8871L32.526 14.5641C32.993 15.6911 34.233 17.0771 36.296 17.0771C38.487 17.0771 40.34 15.7881 40.34 12.6461V5.01012H38.568V5.70212H38.567ZM36.425 11.5831C35.136 11.5831 34.057 10.5031 34.057 9.02112C34.057 7.52212 35.136 6.42712 36.425 6.42712C37.697 6.42712 38.696 7.52212 38.696 9.02112C38.696 10.5031 37.697 11.5831 36.425 11.5831ZM60.806 0.49912H56.335V13.0001H58.2V8.26412H60.805C62.873 8.26412 64.907 6.76712 64.907 4.38212C64.907 1.99712 62.874 0.49912 60.806 0.49912ZM60.854 6.52412H58.2V2.23912H60.854C62.249 2.23912 63.041 3.39412 63.041 4.38212C63.041 5.35012 62.249 6.52412 60.854 6.52412ZM72.386 4.72912C71.035 4.72912 69.636 5.32412 69.057 6.64312L70.713 7.33412C71.067 6.64312 71.727 6.41712 72.418 6.41712C73.383 6.41712 74.364 6.99612 74.38 8.02512V8.15412C74.042 7.96112 73.318 7.67212 72.434 7.67212C70.649 7.67212 68.831 8.65312 68.831 10.4861C68.831 12.1591 70.295 13.2361 71.935 13.2361C73.189 13.2361 73.881 12.6731 74.315 12.0131H74.379V12.9781H76.181V8.18512C76.182 5.96712 74.524 4.72912 72.386 4.72912ZM72.16 11.5801C71.55 11.5801 70.697 11.2741 70.697 10.5181C70.697 9.55312 71.759 9.18312 72.676 9.18312C73.495 9.18312 73.882 9.36012 74.38 9.60112C74.235 10.7601 73.238 11.5801 72.16 11.5801ZM82.743 5.00212L80.604 10.4221H80.54L78.32 5.00212H76.31L79.639 12.5771L77.741 16.7911H79.687L84.818 5.00212H82.743ZM65.937 13.0001H67.802V0.49912H65.937V13.0001Z" fill="white"/>
</svg>
